Coordinates
version=1
nRows=4
nColumns=114
inDegrees=yes

Units are S.I. units (second, meters, Newtons, ...)
If the header above contains a line with 'inDegrees', this indicates whether rotational values are in degrees (yes) or radians (no).

endheader 
time	pelvis_tilt	pelvis_list	pelvis_rotation	pelvis_tx	pelvis_ty	pelvis_tz	hip_flexion_l	hip_adduction_l	hip_rotation_l	hip_flexion_r	hip_adduction_r	hip_rotation_r	knee_angle_l	knee_angle_r	ankle_angle_l	ankle_angle_r	subtalar_angle_l	subtalar_angle_r	mtp_angle_l	mtp_angle_r	lumbar_extension	lumbar_bending	lumbar_rotation	arm_flex_l	arm_add_l	arm_rot_l	arm_flex_r	arm_add_r	arm_rot_r	elbow_flex_l	elbow_flex_r	pro_sup_l	pro_sup_r	addbrev_l/activation	addlong_l/activation	addmagDist_l/activation	addmagIsch_l/activation	addmagMid_l/activation	addmagProx_l/activation	bflh_l/activation	bfsh_l/activation	edl_l/activation	ehl_l/activation	fdl_l/activation	fhl_l/activation	gaslat_l/activation	gasmed_l/activation	glmax1_l/activation	glmax2_l/activation	glmax3_l/activation	glmed1_l/activation	glmed2_l/activation	glmed3_l/activation	glmin1_l/activation	glmin2_l/activation	glmin3_l/activation	grac_l/activation	iliacus_l/activation	perbrev_l/activation	perlong_l/activation	piri_l/activation	psoas_l/activation	recfem_l/activation	sart_l/activation	semimem_l/activation	semiten_l/activation	soleus_l/activation	tfl_l/activation	tibant_l/activation	tibpost_l/activation	vasint_l/activation	vaslat_l/activation	vasmed_l/activation	addbrev_r/activation	addlong_r/activation	addmagDist_r/activation	addmagIsch_r/activation	addmagMid_r/activation	addmagProx_r/activation	bflh_r/activation	bfsh_r/activation	edl_r/activation	ehl_r/activation	fdl_r/activation	fhl_r/activation	gaslat_r/activation	gasmed_r/activation	glmax1_r/activation	glmax2_r/activation	glmax3_r/activation	glmed1_r/activation	glmed2_r/activation	glmed3_r/activation	glmin1_r/activation	glmin2_r/activation	glmin3_r/activation	grac_r/activation	iliacus_r/activation	perbrev_r/activation	perlong_r/activation	piri_r/activation	psoas_r/activation	recfem_r/activation	sart_r/activation	semimem_r/activation	semiten_r/activation	soleus_r/activation	tfl_r/activation	tibant_r/activation	tibpost_r/activation	vasint_r/activation	vaslat_r/activation	vasmed_r/activation	
          2.20000000	          2.59418742	          1.44783356	        -18.75230782	          1.22770413	          0.92388017	          0.33841853	          0.65119078	         -5.37542431	        -14.38728987	         -6.14545487	          2.22181021	        -10.84026012	         26.34256686	         16.70945308	         11.81673387	         16.68256321	        -22.35864987	        -24.01117938	        -44.99813599	          4.99858248	        -12.18713876	         -3.44536889	          0.65636349	          7.92167173	        -16.91380042	         41.42054400	         -2.60336731	        -15.06094978	          9.62760866	         19.06786193	         31.41036568	         68.95872903	         65.50081114	          0.01469051	          0.01204359	          0.05227673	          0.05225385	          0.06038009	          0.01023616	          0.11663677	          0.01031865	          0.01031993	          0.01037515	          0.02028589	          0.03703127	          0.01726314	          0.19616301	          0.01542495	          0.03553252	          0.04237974	          0.04260224	          0.01049296	          0.01006874	          0.03909911	          0.01077757	          0.01012174	          0.01040923	          0.01074230	          0.01341804	          0.01289507	          0.01007484	          0.01019663	          0.01028368	          0.01017666	          0.24697175	          0.13616628	          0.08326861	          0.01297647	          0.01009333	          0.03013049	          0.02956131	          0.02976442	          0.02964208	          0.01009782	          0.01004099	          0.01815133	          0.02075033	          0.01031643	          0.01027160	          0.02110691	          0.01045541	          0.01039505	          0.01480885	          0.07629692	          0.09863462	          0.11084103	          0.01666651	          0.02705092	          0.02676920	          0.02128431	          0.23487517	          0.07075395	          0.03648389	          0.01058193	          0.08040219	          0.04451801	          0.01029522	          0.01011447	          0.01017631	          0.01005256	          0.02943031	          0.01014125	          0.01012763	          0.01039867	          0.02095545	          0.02057051	          0.43770402	          0.06753718	          0.18462314	          0.34287999	          0.04448570	          0.07258592	          0.05205084	
          2.21000000	          2.26431444	          1.58191904	        -18.94974122	          1.22741233	          0.92331774	          0.33855579	          1.33203381	         -5.38140181	        -14.36096809	         -5.86742772	          2.23607880	        -10.51344201	         26.93581149	         16.50144475	         11.53846304	         16.77602101	        -22.89601971	        -24.05040768	        -39.99025667	          2.38499022	        -12.28929503	         -3.13208976	          0.30140494	          7.86440617	        -17.06861095	         41.02352031	         -2.82707093	        -15.34853760	          9.95842866	         19.94164479	         31.24540526	         66.23495033	         64.04788261	          0.01420741	          0.01224847	          0.04363820	          0.04357858	          0.05056667	          0.01124509	          0.09732016	          0.01298780	          0.01218859	          0.01857551	          0.02978466	          0.03120565	          0.04593517	          0.16475379	          0.02147329	          0.02967469	          0.03538387	          0.03553290	          0.01473072	          0.01083967	          0.03266892	          0.01459384	          0.01164591	          0.01258606	          0.01319870	          0.01191817	          0.01097341	          0.01096680	          0.01119479	          0.01176290	          0.01132486	          0.20584644	          0.11357487	          0.06939960	          0.01353902	          0.05512985	          0.04461390	          0.02466151	          0.02481220	          0.02472137	          0.01064364	          0.01051465	          0.01536077	          0.01740578	          0.01254459	          0.01243437	          0.01761685	          0.01252564	          0.01241115	          0.01356467	          0.06366945	          0.08224083	          0.10017592	          0.02262218	          0.02256538	          0.02232334	          0.01775906	          0.19582323	          0.05899147	          0.03042311	          0.01233521	          0.06718502	          0.03715584	          0.01228487	          0.01083300	          0.01056690	          0.01063555	          0.02454702	          0.01097056	          0.04171024	          0.01216628	          0.01749354	          0.01725538	          0.36476561	          0.16904238	          0.15397207	          0.28575955	          0.03711588	          0.06050104	          0.04340752	
          2.22000000	          2.17323038	          1.61407616	        -19.24863010	          1.22793377	          0.92431400	          0.33946305	          1.56975178	         -5.44770111	        -14.50700145	         -5.90710560	          2.23518116	        -10.27245727	         27.41201561	         16.35293873	         11.35725566	         16.87162468	        -23.17279975	        -23.81190100	        -35.73767887	          0.67453417	        -12.46844028	         -2.91854887	          0.20196471	          8.28331021	        -16.89055310	         40.92830224	         -3.39794274	        -15.46922617	          9.13456109	         19.70291698	         31.15182379	         67.21336337	         64.72288706	          0.08198400	          0.04184023	          0.03641810	          0.03634003	          0.04238371	          0.08591515	          0.08126828	          0.02607676	          0.02450776	          0.02155625	          0.02541472	          0.02633111	          0.03898120	          0.16081998	          0.01873884	          0.02476953	          0.02953100	          0.02963173	          0.01302160	          0.03013357	          0.02728260	          0.01327395	          0.02350926	          0.05512711	          0.01482612	          0.01262748	          0.01181085	          0.06060192	          0.04348515	          0.01176498	          0.02976611	          0.17161209	          0.09477026	          0.05785434	          0.01190459	          0.15137080	          0.03726007	          0.02057049	          0.02068286	          0.02061488	          0.04742512	          0.12303742	          0.01294262	          0.01458183	          0.01282701	          0.01401498	          0.01470105	          0.05112759	          0.06636770	          0.04887104	          0.05318069	          0.06859661	          0.08353806	          0.01888467	          0.01881951	          0.01861309	          0.01481365	          0.16336791	          0.04918114	          0.02536581	          0.09484948	          0.05616249	          0.03100481	          0.01907262	          0.33707565	          0.03688514	          0.03899672	          0.02047145	          0.12621761	          0.08740827	          0.07433958	          0.01460178	          0.01446291	          0.30399267	          0.19195736	          0.16110102	          0.23817675	          0.03096118	          0.05042715	          0.03619500	
          2.23000000	          2.17637142	          1.59210159	        -19.58528350	          1.22894511	          0.92577862	          0.34074469	          1.62029988	         -5.57285707	        -14.72947796	         -6.11802278	          2.23195043	        -10.11303008	         27.87971254	         16.16600456	         11.30984113	         16.90790320	        -23.18625536	        -23.33843675	        -32.06511179	         -0.88721950	        -12.64877797	         -2.72958017	          0.17679238	          8.75958661	        -16.67225823	         40.92836413	         -4.08119953	        -15.55265087	          8.01554095	         19.33979489	         31.14417295	         69.38899219	         66.20515757	          0.09381856	          0.20129828	          0.03039304	          0.03030536	          0.03549153	          0.15587171	          0.06784870	          0.03009065	          0.02896035	          0.05757047	          0.02378311	          0.02220212	          0.09531075	          0.20385132	          0.01630979	          0.02067814	          0.02464401	          0.02471476	          0.01203837	          0.10061602	          0.02279802	          0.01221445	          0.04423750	          0.08322915	          0.01346626	          0.01154780	          0.01030027	          0.09825469	          0.03873004	          0.01051302	          0.03436218	          0.14304047	          0.07915526	          0.04821525	          0.01082488	          0.15463166	          0.03123941	          0.01715932	          0.01724109	          0.01719135	          0.03969622	          0.10258223	          0.01101602	          0.01225548	          0.01154378	          0.01236813	          0.01227673	          0.04322876	          0.05538590	          0.04097586	          0.04485860	          0.05757453	          0.06973337	          0.14684801	          0.01570065	          0.01552299	          0.01236269	          0.16729351	          0.04101021	          0.02115343	          0.24215363	          0.04713886	          0.02588787	          0.01643019	          0.28133619	          0.03083189	          0.03253063	          0.01707977	          0.10546662	          0.07718481	          0.06323203	          0.01219649	          0.01215001	          0.31892876	          0.19669082	          0.13432845	          0.19928425	          0.02585069	          0.04203796	          0.03019692	
